<svg xmlns="http://www.w3.org/2000/svg" xmlns:xlink="http://www.w3.org/1999/xlink" version="1.1" data-diagram-type="DESCRIPTION" style="width:1044px;height:1176px;background:#FFFFFF;" width="1044px" height="1176px" viewBox="0 0 1044 1176" zoomAndPan="magnify" preserveAspectRatio="none" contentStyleType="text/css"><?plantuml 1.2026.8?><defs/><g font-family="sans-serif" lengthAdjust="spacing"><!--cluster driving--><g class="cluster" data-qualified-name="driving" id="ent0001" data-source-line="13"><rect x="14" y="4" width="202" height="211" fill="none" style="stroke:none;" rx="2.5" ry="2.5"/><text x="44.166" y="19.535" fill="#000" font-size="14" textLength="141.668" font-weight="700">DRIVING ADAPTERS</text></g><!--cluster m_Cli--><g class="cluster" data-qualified-name="driving.m_Cli" id="ent0002" data-source-line="14"><path d="M30,123 L51.25,47 L178.75,47 L200,123 L178.75,199 L51.25,199 L30,123" style="stroke:#181818;stroke-width:1;" fill="none"/><text x="105.46" y="62.535" fill="#000" font-size="14" textLength="19.079" font-weight="700">Cli</text></g><!--cluster m_Cli_in--><g class="cluster" data-qualified-name="driving.m_Cli.m_Cli_in" id="ent0003" data-source-line="15"><rect x="46" y="90" width="138" height="93" fill="none" style="stroke:none;" rx="2.5" ry="2.5"/><text x="112.693" y="105.535" fill="#000" font-size="14" font-weight="700"> </text></g><!--cluster core--><g class="cluster" data-qualified-name="core" id="ent0005" data-source-line="20"><rect x="232" y="4" width="485" height="817" fill="none" style="stroke:none;" rx="2.5" ry="2.5"/><text x="425.934" y="19.535" fill="#000" font-size="14" textLength="97.132" font-weight="700">APPLICATION</text></g><!--cluster m_Application--><g class="cluster" data-qualified-name="core.m_Application" id="ent0006" data-source-line="21"><path d="M248,426 L304.625,47 L644.375,47 L701,426 L644.375,805 L304.625,805 L248,426" style="stroke:#181818;stroke-width:1;" fill="none"/><text x="433.495" y="62.535" fill="#000" font-size="14" textLength="82.011" font-weight="700">Application</text></g><!--cluster m_Application_in--><g class="cluster" data-qualified-name="core.m_Application.m_Application_in" id="ent0007" data-source-line="22"><rect x="264" y="90" width="421" height="699" fill="none" style="stroke:none;" rx="2.5" ry="2.5"/><text x="472.193" y="105.535" fill="#000" font-size="14" font-weight="700"> </text></g><!--cluster m_Domain--><g class="cluster" data-qualified-name="core.m_Application.m_Application_in.m_Domain" id="ent0012" data-source-line="27"><path d="M280,412.5 L328.625,232 L620.375,232 L669,412.5 L620.375,593 L328.625,593 L280,412.5" style="stroke:#181818;stroke-width:1;" fill="none"/><text x="446.702" y="247.535" fill="#000" font-size="14" textLength="55.597" font-weight="700">Domain</text></g><!--cluster m_Domain_in--><g class="cluster" data-qualified-name="core.m_Application.m_Application_in.m_Domain.m_Domain_in" id="ent0013" data-source-line="28"><rect x="296" y="275" width="357" height="302" fill="none" style="stroke:none;" rx="2.5" ry="2.5"/><text x="472.193" y="290.535" fill="#000" font-size="14" font-weight="700"> </text></g><!--cluster driven--><g class="cluster" data-qualified-name="driven" id="ent0047" data-source-line="62"><rect x="733" y="610" width="234" height="396" fill="none" style="stroke:none;" rx="2.5" ry="2.5"/><text x="782.502" y="625.535" fill="#000" font-size="14" textLength="134.996" font-weight="700">DRIVEN ADAPTERS</text></g><!--cluster m_Kafka--><g class="cluster" data-qualified-name="driven.m_Kafka" id="ent0048" data-source-line="63"><path d="M751,729 L774.25,653 L913.75,653 L937,729 L913.75,805 L774.25,805 L751,729" style="stroke:#181818;stroke-width:1;" fill="none"/><text x="823.468" y="668.535" fill="#000" font-size="14" textLength="41.063" font-weight="700">Kafka</text></g><!--cluster m_Kafka_in--><g class="cluster" data-qualified-name="driven.m_Kafka.m_Kafka_in" id="ent0049" data-source-line="64"><rect x="767" y="696" width="154" height="93" fill="none" style="stroke:none;" rx="2.5" ry="2.5"/><text x="841.693" y="711.535" fill="#000" font-size="14" font-weight="700"> </text></g><!--cluster m_Log--><g class="cluster" data-qualified-name="driven.m_Log" id="ent0051" data-source-line="68"><path d="M749,914 L774.25,838 L925.75,838 L951,914 L925.75,990 L774.25,990 L749,914" style="stroke:#181818;stroke-width:1;" fill="none"/><text x="836.841" y="853.535" fill="#000" font-size="14" textLength="26.318" font-weight="700">Log</text></g><!--cluster m_Log_in--><g class="cluster" data-qualified-name="driven.m_Log.m_Log_in" id="ent0052" data-source-line="69"><rect x="765" y="881" width="170" height="93" fill="none" style="stroke:none;" rx="2.5" ry="2.5"/><text x="847.693" y="896.535" fill="#000" font-size="14" font-weight="700"> </text></g><!--cluster legend--><g class="cluster" data-qualified-name="legend" id="ent0060" data-source-line="80"><rect x="649" y="1023" width="387" height="78" fill="none" style="stroke:#BBB;stroke-width:1;" rx="2.5" ry="2.5"/><text x="825.12" y="1034.668" fill="#666" font-size="10" textLength="34.761" font-weight="700">legend</text></g><!--entity m_Cli_LoadRunner--><g class="entity" data-qualified-name="driving.m_Cli.m_Cli_in.m_Cli_LoadRunner" id="ent0004" data-source-line="16"><rect x="62" y="133" width="105.576" height="34.266" fill="#F1F1F1" style="stroke:#181818;stroke-width:0.5;" rx="2.5" ry="2.5"/><text x="72" y="149.535" fill="#000" font-size="14" textLength="81.054">LoadRunner</text><text x="72" y="162.156" fill="#000" font-size="10" textLength="85.576">«PrimaryAdapter»</text></g><!--entity m_Application_GenerateLoad--><g class="entity" data-qualified-name="core.m_Application.m_Application_in.m_Application_GenerateLoad" id="ent0008" data-source-line="23"><rect x="280" y="133" width="113.509" height="34.266" fill="#F1F1F1" style="stroke:#181818;stroke-width:0.5;" rx="2.5" ry="2.5"/><text x="290" y="149.535" fill="#000" font-size="14" textLength="93.509">GenerateLoad</text><text x="290" y="162.156" fill="#000" font-size="10" textLength="66.665">«PrimaryPort»</text></g><!--entity m_Application_PublishMessage--><g class="entity" data-qualified-name="core.m_Application.m_Application_in.m_Application_PublishMessage" id="ent0009" data-source-line="24"><rect x="412" y="133" width="127.55" height="34.266" fill="#F1F1F1" style="stroke:#181818;stroke-width:0.5;" rx="2.5" ry="2.5"/><text x="422" y="149.535" fill="#000" font-size="14" textLength="107.55">PublishMessage</text><text x="422" y="162.156" fill="#000" font-size="10" textLength="66.665">«PrimaryPort»</text></g><!--entity m_Application_Publisher--><g class="entity" data-qualified-name="core.m_Application.m_Application_in.m_Application_Publisher" id="ent0010" data-source-line="25"><rect x="569" y="739" width="99.541" height="34.266" fill="#F1F1F1" style="stroke:#181818;stroke-width:0.5;" rx="2.5" ry="2.5"/><text x="579" y="755.535" fill="#000" font-size="14" textLength="62.686">Publisher</text><text x="579" y="768.156" fill="#000" font-size="10" textLength="79.541">«SecondaryPort»</text></g><!--entity m_Domain_Wonderland--><g class="entity" data-qualified-name="core.m_Application.m_Application_in.m_Domain.m_Domain_in.m_Domain_Wonderland" id="ent0014" data-source-line="29"><rect x="316.5" y="318" width="100.883" height="34.266" fill="#F1F1F1" style="stroke:#181818;stroke-width:0.5;" rx="2.5" ry="2.5"/><text x="326.5" y="334.535" fill="#000" font-size="14" textLength="80.883">Wonderland</text><text x="326.5" y="347.156" fill="#000" font-size="10" textLength="45.684">«Factory»</text></g><!--entity m_Domain_Envelope--><g class="entity" data-qualified-name="core.m_Application.m_Application_in.m_Domain.m_Domain_in.m_Domain_Envelope" id="ent0015" data-source-line="30"><rect x="437.5" y="318" width="88.745" height="34.266" fill="#F1F1F1" style="stroke:#181818;stroke-width:0.5;" rx="2.5" ry="2.5"/><text x="447.5" y="334.535" fill="#000" font-size="14" textLength="60.58">Envelope</text><text x="447.5" y="347.156" fill="#000" font-size="10" textLength="68.745">«ValueObject»</text></g><!--entity m_Domain_Payload--><g class="entity" data-qualified-name="core.m_Application.m_Application_in.m_Domain.m_Domain_in.m_Domain_Payload" id="ent0016" data-source-line="31"><rect x="544.5" y="318" width="88.745" height="34.266" fill="#F1F1F1" style="stroke:#181818;stroke-width:0.5;" rx="2.5" ry="2.5"/><text x="554.5" y="334.535" fill="#000" font-size="14" textLength="51.974">Payload</text><text x="554.5" y="347.156" fill="#000" font-size="10" textLength="68.745">«ValueObject»</text></g><!--entity m_Domain_Offer--><g class="entity" data-qualified-name="core.m_Application.m_Application_in.m_Domain.m_Domain_in.m_Domain_Offer" id="ent0017" data-source-line="32"><rect x="312.5" y="456" width="88.745" height="34.266" fill="#F1F1F1" style="stroke:#181818;stroke-width:0.5;" rx="2.5" ry="2.5"/><text x="322.5" y="472.535" fill="#000" font-size="14" textLength="34.699">Offer</text><text x="322.5" y="485.156" fill="#000" font-size="10" textLength="68.745">«ValueObject»</text></g><!--entity m_Domain_Order--><g class="entity" data-qualified-name="core.m_Application.m_Application_in.m_Domain.m_Domain_in.m_Domain_Order" id="ent0018" data-source-line="33"><rect x="440.5" y="456" width="88.745" height="34.266" fill="#F1F1F1" style="stroke:#181818;stroke-width:0.5;" rx="2.5" ry="2.5"/><text x="450.5" y="472.535" fill="#000" font-size="14" textLength="38.944">Order</text><text x="450.5" y="485.156" fill="#000" font-size="10" textLength="68.745">«ValueObject»</text></g><!--entity m_Domain_Product--><g class="entity" data-qualified-name="core.m_Application.m_Application_in.m_Domain.m_Domain_in.m_Domain_Product" id="ent0019" data-source-line="34"><rect x="547.5" y="456" width="88.745" height="34.266" fill="#F1F1F1" style="stroke:#181818;stroke-width:0.5;" rx="2.5" ry="2.5"/><text x="557.5" y="472.535" fill="#000" font-size="14" textLength="51.974">Product</text><text x="557.5" y="485.156" fill="#000" font-size="10" textLength="68.745">«ValueObject»</text></g><!--entity m_Domain_Transaction--><g class="entity" data-qualified-name="core.m_Application.m_Application_in.m_Domain.m_Domain_in.m_Domain_Transaction" id="ent0020" data-source-line="35"><rect x="371" y="527" width="99.611" height="34.266" fill="#F1F1F1" style="stroke:#181818;stroke-width:0.5;" rx="2.5" ry="2.5"/><text x="381" y="543.535" fill="#000" font-size="14" textLength="79.611">Transaction</text><text x="381" y="556.156" fill="#000" font-size="10" textLength="68.745">«ValueObject»</text></g><!--entity m_Domain_Payload_j--><g class="entity" data-qualified-name="core.m_Application.m_Application_in.m_Domain.m_Domain_in.m_Domain_Payload_j" id="ent0021" data-source-line="36"><text x="456" y="399.967" fill="#000" font-size="1"> </text></g><!--entity m_Domain_Receipt--><g class="entity" data-qualified-name="core.m_Application.m_Application_in.m_Domain.m_Domain_in.m_Domain_Receipt" id="ent0032" data-source-line="42"><rect x="489.5" y="527" width="88.745" height="34.266" fill="#F1F1F1" style="stroke:#181818;stroke-width:0.5;" rx="2.5" ry="2.5"/><text x="499.5" y="543.535" fill="#000" font-size="14" textLength="49.718">Receipt</text><text x="499.5" y="556.156" fill="#000" font-size="10" textLength="68.745">«ValueObject»</text></g><!--entity m_Kafka_KafkaPublisher--><g class="entity" data-qualified-name="driven.m_Kafka.m_Kafka_in.m_Kafka_KafkaPublisher" id="ent0050" data-source-line="65"><rect x="783.5" y="739" width="120.618" height="34.266" fill="#F1F1F1" style="stroke:#181818;stroke-width:0.5;" rx="2.5" ry="2.5"/><text x="793.5" y="755.535" fill="#000" font-size="14" textLength="100.618">KafkaPublisher</text><text x="793.5" y="768.156" fill="#000" font-size="10" textLength="98.452">«SecondaryAdapter»</text></g><!--entity m_Log_LoggingPublisher--><g class="entity" data-qualified-name="driven.m_Log.m_Log_in.m_Log_LoggingPublisher" id="ent0053" data-source-line="70"><rect x="781" y="924" width="137.674" height="34.266" fill="#F1F1F1" style="stroke:#181818;stroke-width:0.5;" rx="2.5" ry="2.5"/><text x="791" y="940.535" fill="#000" font-size="14" textLength="117.674">LoggingPublisher</text><text x="791" y="953.156" fill="#000" font-size="10" textLength="98.452">«SecondaryAdapter»</text></g><!--entity l_uses_from--><!--entity l_uses_to--><!--entity l_implements_from--><!--entity l_implements_to--><!--entity l_depends_on_from--><!--entity l_depends_on_to--><g class="link" data-entity-1="ent0021" data-entity-2="ent0017" id="lnk23" data-link-type="association"><path d="M445.778,411.918 C430.562,422.216 401.526,441.866 380.803,455.891" style="stroke:#181818;stroke-width:1;stroke-dasharray:7,7;" fill="none"/></g><g class="link" data-entity-1="ent0021" data-entity-2="ent0018" id="lnk25" data-link-type="association"><path d="M461.368,419.214 C463.638,425.067 466.364,431.894 469,438 C471.534,443.87 474.473,450.228 477.135,455.84" style="stroke:#181818;stroke-width:1;stroke-dasharray:7,7;" fill="none"/></g><g class="link" data-entity-1="ent0021" data-entity-2="ent0019" id="lnk27" data-link-type="association"><path d="M466.222,410.036 C485.743,419.653 529.079,441.002 559.398,455.939" style="stroke:#181818;stroke-width:1;stroke-dasharray:7,7;" fill="none"/></g><g class="link" data-entity-1="ent0021" data-entity-2="ent0020" id="lnk29" data-link-type="association"><path d="M447.401,419.194 C441.793,429.142 434.827,442.941 431,456 C423.944,480.073 421.83,509.256 421.218,526.962" style="stroke:#181818;stroke-width:1;stroke-dasharray:7,7;" fill="none"/></g><g class="link" data-entity-1="ent0016" data-entity-2="ent0021" id="lnk31" data-link-type="extension"><polygon points="557.143,352.048,538.368,354.788,543.767,365.505,557.143,352.048" fill="none" style="stroke:#181818;stroke-width:1;stroke-linejoin:miter;stroke-miterlimit:10;"/><path d="M541.068,360.146 C511.558,375.012 485.495,388.142 466.27,397.826" style="stroke:#181818;stroke-width:1;stroke-dasharray:7,7;" fill="none"/></g><g class="link" data-entity-1="ent0004" data-entity-2="ent0008" id="lnk55" data-link-type="dependency"><polygon points="279.679,150,270.679,146,274.679,150,270.679,154,279.679,150" fill="#181818" style="stroke:#181818;stroke-width:1;stroke-linejoin:miter;stroke-miterlimit:10;"/><path d="M168.332,150 C205.448,150 237.564,150 274.679,150" style="stroke:#181818;stroke-width:1;" fill="none"/></g><g class="link" data-entity-1="ent0010" data-entity-2="ent0050" id="lnk57" data-link-type="extension"><polygon points="669.098,756,687.098,762,687.098,750,669.098,756" fill="none" style="stroke:#181818;stroke-width:1;stroke-linejoin:miter;stroke-miterlimit:10;"/><path d="M687.098,756 C725.13,756 745.162,756 783.194,756" style="stroke:#181818;stroke-width:1;stroke-dasharray:7,7;" fill="none"/></g><g class="link" data-entity-1="ent0010" data-entity-2="ent0053" id="lnk59" data-link-type="extension"><polygon points="639.5,773.24,649.883,789.12,657.335,779.714,639.5,773.24" fill="none" style="stroke:#181818;stroke-width:1;stroke-linejoin:miter;stroke-miterlimit:10;"/><path d="M653.609,784.417 C697.445,819.145 785.751,889.101 829.546,923.796" style="stroke:#181818;stroke-width:1;stroke-dasharray:7,7;" fill="none"/></g><g class="link" data-entity-1="ent0061" data-entity-2="ent0062" id="lnk63" data-link-type="dependency"><polygon points="727.694,1073,718.694,1069,722.694,1073,718.694,1077,727.694,1073" fill="#181818" style="stroke:#181818;stroke-width:1;stroke-linejoin:miter;stroke-miterlimit:10;"/><path d="M685.122,1073 C696.809,1073 710.929,1073 722.694,1073" style="stroke:#181818;stroke-width:1;" fill="none"/><text x="696" y="1066.668" fill="#666" font-size="10" textLength="21.973">uses</text></g><g class="link" data-entity-1="ent0064" data-entity-2="ent0065" id="lnk66" data-link-type="extension"><polygon points="863.79,1073,845.79,1067,845.79,1079,863.79,1073" fill="none" style="stroke:#181818;stroke-width:1;stroke-linejoin:miter;stroke-miterlimit:10;"/><path d="M786.119,1073 C804.898,1073 826.941,1073 845.79,1073" style="stroke:#181818;stroke-width:1;stroke-dasharray:7,7;" fill="none"/><text x="797" y="1066.668" fill="#666" font-size="10" textLength="56.934">implements</text></g><g class="link" data-entity-1="ent0067" data-entity-2="ent0068" id="lnk69" data-link-type="dependency"><polygon points="999.79,1073,990.79,1069,994.79,1073,990.79,1077,999.79,1073" fill="#181818" style="stroke:#181818;stroke-width:1;stroke-linejoin:miter;stroke-miterlimit:10;"/><path d="M922.119,1073 C940.898,1073 975.941,1073 994.79,1073" style="stroke:#181818;stroke-width:1;stroke-dasharray:7,7;" fill="none"/><text x="933" y="1066.668" fill="#666" font-size="10" textLength="56.841">depends on</text></g><g class="legend" data-source-line="95"><rect x="771.531" y="1131" width="253.469" height="26.488" fill="#DDD" style="stroke:#000;stroke-width:1;" rx="7.5" ry="7.5"/><text x="776.531" y="1149.535" fill="#000" font-size="14" textLength="243.469">ConfluentLoadGeneratorApplication</text></g><?plantuml-src dLVDRjiu4BxhAMRTmvwIRHV57ho10M-Iji7cnqY2zh0j34OQoqmeKY3ffcxNJxIFiBS-MKbAjYZgnrO599OqyttpIt7uIov9cX5WP2rM6bI6cd0I_GfwYR34BoGL71PIPEv5B18SmrqkAK_XIYGhHlKICdk32d96OapWOMrrgOJ7Ay4mTYAbKQBGwnnLf9uepuaa6QWbISIpvLeGfj2J9BWWAwRlyOkUCfho3Ba6XWljwKZ2dnJcyFjhxoKt7ZPUJgKKpsy4rtVqAyAhbssYKy64X1T_k2iwKNhDS19jC_0DtWb9lnezmYg7OlCF9MmYYR59Myfmd-B9RoMn1ncTtLwylxX-2zEpwUp-_FPk14H18kbdcvaNZ78SQnEiCXvRicyHx2epEcNKgMTpS-T401urLC8vvHrazeg9J61qAKXok-8SvKT-eaoongzUJhx_DvCq8t8zJKXkmlZ-lud2o2OUTmLqV9l8_lbv6KrdiykBq-dznSsrmyL2uhxWfddEQ4mq5RoqvRtf3jPJEYJejsZS9Xfj36rXpuJKOSo-2HzV8vwj7XXLoojKYgJuCzHrXZRoe59t60kU7CvSrWjwGeAZVvOqIP1_aZHTwgF98JxkIdWcCaAtrIiUTkblBLwXqr-tAWiVJBGe6U7rohqXiHPo7IQWvAv03Rvp_XcPoEl5Ua_O2cyU7esp7OnRM8DlHjOiRAlzT2MgmNQpM0Jrti_bC4qccGndifXcXD9y_MCzDC82rM2xjzKsnJEDDP3HGtgiZ3mWWr79D86-TCyVFM0zVt2yoeyF1TWq3G6KkHW2yO8TP6ahTA1_9_ixxXPZfFdGwfQeDXUgjTVsNUbUJhq4PeZWFZxi-GPnZ-rc9dhG3SF14WbPkv7D1H5qOBV7dKO3O6YoVSK4VToJg1wFwz3GS4zx-8tTRJeas4JrtqCsiz2fngRGjyiDekaBRGVltvlhSG-2junYTjuylswEcyZt3MH_ayKJATUwk-yUmfpuaF7BAUwPPZecpy96dS0BsdFyKgGbnjnrEss4Xut9QMfcyvzpsje82MfEjyVLKlHMfaqKXICv7BLFRhN1jSFgiJrq5Lj5Uu-rkx4VvpVaBdiCK-I9dw_YJLcHlzprfpQdmd5nK7E5AJVveeXilbAevlR8sY7ImWegjIezEmKOWxrh4j0iPsYFT5qMF8NIJW21OsVDfYRGDaQhvoPpWhd9X9gRBBQRzXHAqm5aQteIAXlBvJEulQ3AG-CRt9g288uMKEZyfgjlmYxtozdHIhsOid-S9yRLKy4NPdhXslPysVz2UhIHqIumFm00?></g></svg>