<svg xmlns="http://www.w3.org/2000/svg" xmlns:xlink="http://www.w3.org/1999/xlink" version="1.1" data-diagram-type="DESCRIPTION" style="width:1774px;height:1179px;background:#FFFFFF;" width="1774px" height="1179px" viewBox="0 0 1774 1179" zoomAndPan="magnify" preserveAspectRatio="none" contentStyleType="text/css"><?plantuml 1.2026.8?><defs/><g font-family="sans-serif" lengthAdjust="spacing"><!--cluster driving--><g class="cluster" data-qualified-name="driving" id="ent0001" data-source-line="13"><rect x="14" y="4" width="224" height="617" fill="none" style="stroke:none;" rx="2.5" ry="2.5"/><text x="55.166" y="19.535" fill="#000" font-size="14" textLength="141.668" font-weight="700">DRIVING ADAPTERS</text></g><!--cluster m_Cli--><g class="cluster" data-qualified-name="driving.m_Cli" id="ent0002" data-source-line="14"><path d="M52,120 L73.25,47 L200.75,47 L222,120 L200.75,193 L73.25,193 L52,120" style="stroke:#181818;stroke-width:1;" fill="none"/><text x="127.46" y="62.535" fill="#000" font-size="14" textLength="19.079" font-weight="700">Cli</text></g><!--cluster m_Cli_in--><g class="cluster" data-qualified-name="driving.m_Cli.m_Cli_in" id="ent0003" data-source-line="15"><rect x="68" y="90" width="138" height="87" fill="none" style="stroke:none;" rx="2.5" ry="2.5"/><text x="136.835" y="92.967" fill="#000" font-size="1" font-weight="700"> </text></g><!--cluster m_Console--><g class="cluster" data-qualified-name="driving.m_Console" id="ent0005" data-source-line="19"><path d="M30,326 L54,253 L198,253 L222,326 L198,399 L54,399 L30,326" style="stroke:#181818;stroke-width:1;" fill="none"/><text x="97.139" y="268.535" fill="#000" font-size="14" textLength="57.723" font-weight="700">Console</text></g><!--cluster m_Console_in--><g class="cluster" data-qualified-name="driving.m_Console.m_Console_in" id="ent0006" data-source-line="20"><rect x="46" y="296" width="160" height="87" fill="none" style="stroke:none;" rx="2.5" ry="2.5"/><text x="125.835" y="298.967" fill="#000" font-size="1" font-weight="700"> </text></g><!--cluster m_Kafka_consumer--><g class="cluster" data-qualified-name="driving.m_Kafka_consumer" id="ent0008" data-source-line="24"><path d="M50,532 L71.5,459 L200.5,459 L222,532 L200.5,605 L71.5,605 L50,532" style="stroke:#181818;stroke-width:1;" fill="none"/><text x="77.741" y="474.535" fill="#000" font-size="14" textLength="116.519" font-weight="700">Kafka consumer</text></g><!--cluster m_Kafka_consumer_in--><g class="cluster" data-qualified-name="driving.m_Kafka_consumer.m_Kafka_consumer_in" id="ent0009" data-source-line="25"><rect x="66" y="502" width="140" height="87" fill="none" style="stroke:none;" rx="2.5" ry="2.5"/><text x="135.835" y="504.967" fill="#000" font-size="1" font-weight="700"> </text></g><!--cluster core--><g class="cluster" data-qualified-name="core" id="ent0013" data-source-line="32"><rect x="254" y="210" width="911" height="894" fill="none" style="stroke:none;" rx="2.5" ry="2.5"/><text x="660.934" y="225.535" fill="#000" font-size="14" textLength="97.132" font-weight="700">APPLICATION</text></g><!--cluster m_Application--><g class="cluster" data-qualified-name="core.m_Application" id="ent0014" data-source-line="33"><path d="M464,773.5 L549.625,459 L1063.375,459 L1149,773.5 L1063.375,1088 L549.625,1088 L464,773.5" style="stroke:#181818;stroke-width:1;" fill="none"/><text x="765.495" y="474.535" fill="#000" font-size="14" textLength="82.011" font-weight="700">Application</text></g><!--cluster m_Application_in--><g class="cluster" data-qualified-name="core.m_Application.m_Application_in" id="ent0015" data-source-line="34"><rect x="512" y="502" width="621" height="570" fill="none" style="stroke:none;" rx="2.5" ry="2.5"/><text x="822.335" y="504.967" fill="#000" font-size="1" font-weight="700"> </text></g><!--cluster m_Domain--><g class="cluster" data-qualified-name="core.m_Application.m_Application_in.m_Domain" id="ent0023" data-source-line="42"><path d="M630,847 L690.875,638 L1056.125,638 L1117,847 L1056.125,1056 L690.875,1056 L630,847" style="stroke:#181818;stroke-width:1;" fill="none"/><text x="845.702" y="653.535" fill="#000" font-size="14" textLength="55.597" font-weight="700">Domain</text></g><!--cluster m_Domain_in--><g class="cluster" data-qualified-name="core.m_Application.m_Application_in.m_Domain.m_Domain_in" id="ent0024" data-source-line="43"><rect x="646" y="681" width="455" height="359" fill="none" style="stroke:none;" rx="2.5" ry="2.5"/><text x="873.335" y="683.967" fill="#000" font-size="1" font-weight="700"> </text></g><!--cluster m_Protobuf--><g class="cluster" data-qualified-name="core.m_Application.m_Application_in.m_Protobuf" id="ent0051" data-source-line="67"><path d="M528,721.5 L538.75,677 L603.25,677 L614,721.5 L603.25,766 L538.75,766 L528,721.5" style="stroke:#181818;stroke-width:1;" fill="none"/><text x="539.609" y="692.535" fill="#000" font-size="14" textLength="62.781" font-weight="700">Protobuf</text></g><!--cluster m_Load_story--><g class="cluster" data-qualified-name="core.m_Load_story" id="ent0058" data-source-line="78"><path d="M270,890 L292.25,817 L425.75,817 L448,890 L425.75,963 L292.25,963 L270,890" style="stroke:#181818;stroke-width:1;" fill="none"/><text x="320.869" y="832.535" fill="#000" font-size="14" textLength="76.262" font-weight="700">Load story</text></g><!--cluster m_Load_story_in--><g class="cluster" data-qualified-name="core.m_Load_story.m_Load_story_in" id="ent0059" data-source-line="79"><rect x="286" y="860" width="146" height="87" fill="none" style="stroke:none;" rx="2.5" ry="2.5"/><text x="358.835" y="862.967" fill="#000" font-size="1" font-weight="700"> </text></g><!--cluster m_Tea_party_story--><g class="cluster" data-qualified-name="core.m_Tea_party_story" id="ent0061" data-source-line="83"><path d="M914,326 L941.5,253 L1106.5,253 L1134,326 L1106.5,399 L941.5,399 L914,326" style="stroke:#181818;stroke-width:1;" fill="none"/><text x="968.957" y="268.535" fill="#000" font-size="14" textLength="110.086" font-weight="700">Tea party story</text></g><!--cluster m_Tea_party_story_in--><g class="cluster" data-qualified-name="core.m_Tea_party_story.m_Tea_party_story_in" id="ent0062" data-source-line="84"><rect x="930" y="296" width="188" height="87" fill="none" style="stroke:none;" rx="2.5" ry="2.5"/><text x="1023.835" y="298.967" fill="#000" font-size="1" font-weight="700"> </text></g><!--cluster driven--><g class="cluster" data-qualified-name="driven" id="ent0070" data-source-line="95"><rect x="1181" y="416" width="234" height="384" fill="none" style="stroke:none;" rx="2.5" ry="2.5"/><text x="1230.502" y="431.535" fill="#000" font-size="14" textLength="134.996" font-weight="700">DRIVEN ADAPTERS</text></g><!--cluster m_Kafka_publisher--><g class="cluster" data-qualified-name="driven.m_Kafka_publisher" id="ent0071" data-source-line="96"><path d="M1199,532 L1222.25,459 L1361.75,459 L1385,532 L1361.75,605 L1222.25,605 L1199,532" style="stroke:#181818;stroke-width:1;" fill="none"/><text x="1234.896" y="474.535" fill="#000" font-size="14" textLength="114.208" font-weight="700">Kafka publisher</text></g><!--cluster m_Kafka_publisher_in--><g class="cluster" data-qualified-name="driven.m_Kafka_publisher.m_Kafka_publisher_in" id="ent0072" data-source-line="97"><rect x="1215" y="502" width="154" height="87" fill="none" style="stroke:none;" rx="2.5" ry="2.5"/><text x="1291.835" y="504.967" fill="#000" font-size="1" font-weight="700"> </text></g><!--cluster m_Log--><g class="cluster" data-qualified-name="driven.m_Log" id="ent0074" data-source-line="101"><path d="M1197,711 L1222.25,638 L1373.75,638 L1399,711 L1373.75,784 L1222.25,784 L1197,711" style="stroke:#181818;stroke-width:1;" fill="none"/><text x="1284.841" y="653.535" fill="#000" font-size="14" textLength="26.318" font-weight="700">Log</text></g><!--cluster m_Log_in--><g class="cluster" data-qualified-name="driven.m_Log.m_Log_in" id="ent0075" data-source-line="102"><rect x="1213" y="681" width="170" height="87" fill="none" style="stroke:none;" rx="2.5" ry="2.5"/><text x="1297.835" y="683.967" fill="#000" font-size="1" font-weight="700"> </text></g><!--cluster legend--><g class="cluster" data-qualified-name="legend" id="ent0109" data-source-line="139"><rect x="1379" y="864" width="387" height="78" fill="none" style="stroke:#BBB;stroke-width:1;" rx="2.5" ry="2.5"/><text x="1555.12" y="875.668" fill="#666" font-size="10" textLength="34.761" font-weight="700">legend</text></g><!--entity m_Cli_StoryRunner--><g class="entity" data-qualified-name="driving.m_Cli.m_Cli_in.m_Cli_StoryRunner" id="ent0004" data-source-line="16"><rect x="84" y="127" width="105.576" height="34.266" fill="#F1F1F1" style="stroke:#181818;stroke-width:0.5;" rx="2.5" ry="2.5"/><text x="94" y="143.535" fill="#000" font-size="14" textLength="82.865">StoryRunner</text><text x="94" y="156.156" fill="#000" font-size="10" textLength="85.576">«PrimaryAdapter»</text></g><!--entity m_Console_ConsoleListener--><g class="entity" data-qualified-name="driving.m_Console.m_Console_in.m_Console_ConsoleListener" id="ent0007" data-source-line="21"><rect x="62" y="333" width="128.459" height="34.266" fill="#F1F1F1" style="stroke:#181818;stroke-width:0.5;" rx="2.5" ry="2.5"/><text x="72" y="349.535" fill="#000" font-size="14" textLength="108.459">ConsoleListener</text><text x="72" y="362.156" fill="#000" font-size="10" textLength="85.576">«PrimaryAdapter»</text></g><!--entity m_Kafka_consumer_StoryListener--><g class="entity" data-qualified-name="driving.m_Kafka_consumer.m_Kafka_consumer_in.m_Kafka_consumer_StoryListener" id="ent0010" data-source-line="26"><rect x="82" y="539" width="108.32" height="34.266" fill="#F1F1F1" style="stroke:#181818;stroke-width:0.5;" rx="2.5" ry="2.5"/><text x="92" y="555.535" fill="#000" font-size="14" textLength="88.32">StoryListener</text><text x="92" y="568.156" fill="#000" font-size="10" textLength="85.576">«PrimaryAdapter»</text></g><!--entity m_Application_PublishMessage--><g class="entity" data-qualified-name="core.m_Application.m_Application_in.m_Application_PublishMessage" id="ent0016" data-source-line="35"><rect x="655" y="539" width="127.55" height="34.266" fill="#F1F1F1" style="stroke:#181818;stroke-width:0.5;" rx="2.5" ry="2.5"/><text x="665" y="555.535" fill="#000" font-size="14" textLength="107.55">PublishMessage</text><text x="665" y="568.156" fill="#000" font-size="10" textLength="66.665">«PrimaryPort»</text></g><!--entity m_Application_Story--><g class="entity" data-qualified-name="core.m_Application.m_Application_in.m_Application_Story" id="ent0017" data-source-line="36"><rect x="549.5" y="539" width="86.665" height="34.266" fill="#F1F1F1" style="stroke:#181818;stroke-width:0.5;" rx="2.5" ry="2.5"/><text x="559.5" y="555.535" fill="#000" font-size="14" textLength="34.419">Story</text><text x="559.5" y="568.156" fill="#000" font-size="10" textLength="66.665">«PrimaryPort»</text></g><!--entity m_Application_Publisher--><g class="entity" data-qualified-name="core.m_Application.m_Application_in.m_Application_Publisher" id="ent0018" data-source-line="37"><rect x="885" y="539" width="99.541" height="34.266" fill="#F1F1F1" style="stroke:#181818;stroke-width:0.5;" rx="2.5" ry="2.5"/><text x="895" y="555.535" fill="#000" font-size="14" textLength="62.686">Publisher</text><text x="895" y="568.156" fill="#000" font-size="10" textLength="79.541">«SecondaryPort»</text></g><!--entity m_Application_Stories--><g class="entity" data-qualified-name="core.m_Application.m_Application_in.m_Application_Stories" id="ent0019" data-source-line="38"><rect x="801" y="539" width="66.088" height="34.266" fill="#F1F1F1" style="stroke:#181818;stroke-width:0.5;" rx="2.5" ry="2.5"/><text x="811" y="555.535" fill="#000" font-size="14" textLength="46.088">Stories</text><text x="811" y="568.156" fill="#000" font-size="10" textLength="44.287">«Service»</text></g><!--entity m_Domain_Wonderland--><g class="entity" data-qualified-name="core.m_Application.m_Application_in.m_Domain.m_Domain_in.m_Domain_Wonderland" id="ent0025" data-source-line="44"><rect x="769.5" y="718" width="100.883" height="34.266" fill="#F1F1F1" style="stroke:#181818;stroke-width:0.5;" rx="2.5" ry="2.5"/><text x="779.5" y="734.535" fill="#000" font-size="14" textLength="80.883">Wonderland</text><text x="779.5" y="747.156" fill="#000" font-size="10" textLength="45.684">«Factory»</text></g><!--entity m_Domain_Envelope--><g class="entity" data-qualified-name="core.m_Application.m_Application_in.m_Domain.m_Domain_in.m_Domain_Envelope" id="ent0026" data-source-line="45"><rect x="888.5" y="718" width="88.745" height="34.266" fill="#F1F1F1" style="stroke:#181818;stroke-width:0.5;" rx="2.5" ry="2.5"/><text x="898.5" y="734.535" fill="#000" font-size="14" textLength="60.58">Envelope</text><text x="898.5" y="747.156" fill="#000" font-size="10" textLength="68.745">«ValueObject»</text></g><!--entity m_Domain_Payload--><g class="entity" data-qualified-name="core.m_Application.m_Application_in.m_Domain.m_Domain_in.m_Domain_Payload" id="ent0027" data-source-line="46"><rect x="662.5" y="718" width="88.745" height="34.266" fill="#F1F1F1" style="stroke:#181818;stroke-width:0.5;" rx="2.5" ry="2.5"/><text x="672.5" y="734.535" fill="#000" font-size="14" textLength="51.974">Payload</text><text x="672.5" y="747.156" fill="#000" font-size="10" textLength="68.745">«ValueObject»</text></g><!--entity m_Domain_Offer--><g class="entity" data-qualified-name="core.m_Application.m_Application_in.m_Domain.m_Domain_in.m_Domain_Offer" id="ent0028" data-source-line="47"><rect x="876.5" y="990" width="88.745" height="34.266" fill="#F1F1F1" style="stroke:#181818;stroke-width:0.5;" rx="2.5" ry="2.5"/><text x="886.5" y="1006.535" fill="#000" font-size="14" textLength="34.699">Offer</text><text x="886.5" y="1019.156" fill="#000" font-size="10" textLength="68.745">«ValueObject»</text></g><!--entity m_Domain_Order--><g class="entity" data-qualified-name="core.m_Application.m_Application_in.m_Domain.m_Domain_in.m_Domain_Order" id="ent0029" data-source-line="48"><rect x="769.5" y="990" width="88.745" height="34.266" fill="#F1F1F1" style="stroke:#181818;stroke-width:0.5;" rx="2.5" ry="2.5"/><text x="779.5" y="1006.535" fill="#000" font-size="14" textLength="38.944">Order</text><text x="779.5" y="1019.156" fill="#000" font-size="10" textLength="68.745">«ValueObject»</text></g><!--entity m_Domain_Product--><g class="entity" data-qualified-name="core.m_Application.m_Application_in.m_Domain.m_Domain_in.m_Domain_Product" id="ent0030" data-source-line="49"><rect x="662.5" y="990" width="88.745" height="34.266" fill="#F1F1F1" style="stroke:#181818;stroke-width:0.5;" rx="2.5" ry="2.5"/><text x="672.5" y="1006.535" fill="#000" font-size="14" textLength="51.974">Product</text><text x="672.5" y="1019.156" fill="#000" font-size="10" textLength="68.745">«ValueObject»</text></g><!--entity m_Domain_Transaction--><g class="entity" data-qualified-name="core.m_Application.m_Application_in.m_Domain.m_Domain_in.m_Domain_Transaction" id="ent0031" data-source-line="50"><rect x="984" y="990" width="99.611" height="34.266" fill="#F1F1F1" style="stroke:#181818;stroke-width:0.5;" rx="2.5" ry="2.5"/><text x="994" y="1006.535" fill="#000" font-size="14" textLength="79.611">Transaction</text><text x="994" y="1019.156" fill="#000" font-size="10" textLength="68.745">«ValueObject»</text></g><!--entity m_Domain_Payload_j--><g class="entity" data-qualified-name="core.m_Application.m_Application_in.m_Domain.m_Domain_in.m_Domain_Payload_j" id="ent0032" data-source-line="51"><text x="814" y="909.967" fill="#000" font-size="1"> </text></g><!--entity m_Domain_Receipt--><g class="entity" data-qualified-name="core.m_Application.m_Application_in.m_Domain.m_Domain_in.m_Domain_Receipt" id="ent0043" data-source-line="57"><rect x="995.5" y="718" width="88.745" height="34.266" fill="#F1F1F1" style="stroke:#181818;stroke-width:0.5;" rx="2.5" ry="2.5"/><text x="1005.5" y="734.535" fill="#000" font-size="14" textLength="49.718">Receipt</text><text x="1005.5" y="747.156" fill="#000" font-size="10" textLength="68.745">«ValueObject»</text></g><!--entity m_Protobuf_in--><g class="entity" data-qualified-name="core.m_Application.m_Application_in.m_Protobuf.m_Protobuf_in" id="ent0052" data-source-line="68"><rect x="578" y="720" width="20.316" height="30" fill="#F1F1F1" style="stroke:none;" rx="2.5" ry="2.5"/><text x="588" y="730.967" fill="#000" font-size="1"> </text></g><!--entity m_Load_story_GenerateLoad--><g class="entity" data-qualified-name="core.m_Load_story.m_Load_story_in.m_Load_story_GenerateLoad" id="ent0060" data-source-line="80"><rect x="302" y="897" width="113.509" height="34.266" fill="#F1F1F1" style="stroke:#181818;stroke-width:0.5;" rx="2.5" ry="2.5"/><text x="312" y="913.535" fill="#000" font-size="14" textLength="93.509">GenerateLoad</text><text x="312" y="926.156" fill="#000" font-size="10" textLength="66.665">«PrimaryPort»</text></g><!--entity m_Tea_party_story_SettleAtTheTeaParty--><g class="entity" data-qualified-name="core.m_Tea_party_story.m_Tea_party_story_in.m_Tea_party_story_SettleAtTheTeaParty" id="ent0063" data-source-line="85"><rect x="946" y="333" width="156.028" height="34.266" fill="#F1F1F1" style="stroke:#181818;stroke-width:0.5;" rx="2.5" ry="2.5"/><text x="956" y="349.535" fill="#000" font-size="14" textLength="136.028">SettleAtTheTeaParty</text><text x="956" y="362.156" fill="#000" font-size="10" textLength="66.665">«PrimaryPort»</text></g><!--entity m_Kafka_publisher_KafkaPublisher--><g class="entity" data-qualified-name="driven.m_Kafka_publisher.m_Kafka_publisher_in.m_Kafka_publisher_KafkaPublisher" id="ent0073" data-source-line="98"><rect x="1231.5" y="539" width="120.618" height="34.266" fill="#F1F1F1" style="stroke:#181818;stroke-width:0.5;" rx="2.5" ry="2.5"/><text x="1241.5" y="555.535" fill="#000" font-size="14" textLength="100.618">KafkaPublisher</text><text x="1241.5" y="568.156" fill="#000" font-size="10" textLength="98.452">«SecondaryAdapter»</text></g><!--entity m_Log_LoggingPublisher--><g class="entity" data-qualified-name="driven.m_Log.m_Log_in.m_Log_LoggingPublisher" id="ent0076" data-source-line="103"><rect x="1229" y="718" width="137.674" height="34.266" fill="#F1F1F1" style="stroke:#181818;stroke-width:0.5;" rx="2.5" ry="2.5"/><text x="1239" y="734.535" fill="#000" font-size="14" textLength="117.674">LoggingPublisher</text><text x="1239" y="747.156" fill="#000" font-size="10" textLength="98.452">«SecondaryAdapter»</text></g><!--entity l_uses_from--><!--entity l_uses_to--><!--entity l_implements_from--><!--entity l_implements_to--><!--entity l_depends_on_from--><!--entity l_depends_on_to--><g class="link" data-entity-1="ent0032" data-entity-2="ent0028" id="lnk34" data-link-type="association"><path d="M824.26,923.725 C842.149,938.939 879.303,970.538 902.003,989.844" style="stroke:#181818;stroke-width:1;stroke-dasharray:7,7;" fill="none"/></g><g class="link" data-entity-1="ent0032" data-entity-2="ent0029" id="lnk36" data-link-type="association"><path d="M814,929.219 C814,945.615 814,972.514 814,989.731" style="stroke:#181818;stroke-width:1;stroke-dasharray:7,7;" fill="none"/></g><g class="link" data-entity-1="ent0032" data-entity-2="ent0030" id="lnk38" data-link-type="association"><path d="M803.74,923.725 C785.851,938.939 748.697,970.538 725.997,989.844" style="stroke:#181818;stroke-width:1;stroke-dasharray:7,7;" fill="none"/></g><g class="link" data-entity-1="ent0032" data-entity-2="ent0031" id="lnk40" data-link-type="association"><path d="M824.025,919.147 C853.866,931.49 943.271,968.471 995.295,989.99" style="stroke:#181818;stroke-width:1;stroke-dasharray:7,7;" fill="none"/></g><g class="link" data-entity-1="ent0027" data-entity-2="ent0032" id="lnk42" data-link-type="extension"><polygon points="718.224,752.071,723.506,770.294,733.384,763.48,718.224,752.071" fill="none" style="stroke:#181818;stroke-width:1;stroke-linejoin:miter;stroke-miterlimit:10;"/><path d="M728.445,766.887 C738.409,781.33 742.986,788.404 755,808 C774.563,839.909 795.614,878.531 806.507,898.877" style="stroke:#181818;stroke-width:1;stroke-dasharray:7,7;" fill="none"/></g><g class="link" data-entity-1="ent0016" data-entity-2="ent0018" id="lnk78" data-link-type="dependency"><polygon points="934.078,538.999,937.297,529.691,933.652,534.017,929.326,530.373,934.078,538.999" fill="#181818" style="stroke:#181818;stroke-width:1;stroke-linejoin:miter;stroke-miterlimit:10;"/><path d="M725.857,538.554 C737.18,510.956 761.585,456.234 792,416 C795.318,411.611 795.887,409.533 801,407.5 C828.258,396.663 839.742,396.663 867,407.5 C918.777,428.085 930.706,499.58 933.652,534.017" style="stroke:#181818;stroke-width:1;" fill="none"/></g><g class="link" data-entity-1="ent0016" data-entity-2="ent0026" id="lnk79" data-link-type="dependency"><polygon points="934.991,717.779,937.594,708.281,934.24,712.836,929.684,709.482,934.991,717.779" fill="#181818" style="stroke:#181818;stroke-width:1;stroke-linejoin:miter;stroke-miterlimit:10;"/><path d="M731.963,573.024 C742.311,590.394 757.494,617.325 780,630 C800.969,641.809 867.689,625.091 888,638 C916.727,656.258 930.861,690.595 934.24,712.836" style="stroke:#181818;stroke-width:1;stroke-dasharray:7,7;" fill="none"/></g><g class="link" data-entity-1="ent0016" data-entity-2="ent0027" id="lnk80" data-link-type="dependency"><polygon points="708.054,717.989,712.637,709.272,708.383,713,704.655,708.745,708.054,717.989" fill="#181818" style="stroke:#181818;stroke-width:1;stroke-linejoin:miter;stroke-miterlimit:10;"/><path d="M717.875,573.013 C716.853,587.604 715.31,609.748 714,629 C711.854,660.534 709.741,692.41 708.383,713" style="stroke:#181818;stroke-width:1;stroke-dasharray:7,7;" fill="none"/></g><g class="link" data-entity-1="ent0016" data-entity-2="ent0043" id="lnk81" data-link-type="dependency"><polygon points="1035.982,717.833,1037.311,708.075,1034.586,713.032,1029.629,710.307,1035.982,717.833" fill="#181818" style="stroke:#181818;stroke-width:1;stroke-linejoin:miter;stroke-miterlimit:10;"/><path d="M731.884,573.069 C745.163,588.336 767.354,610.475 792,621 C831.799,637.996 949.634,614.541 986,638 C1014.603,656.451 1028.142,690.854 1034.586,713.032" style="stroke:#181818;stroke-width:1;stroke-dasharray:7,7;" fill="none"/></g><g class="link" data-entity-1="ent0018" data-entity-2="ent0026" id="lnk82" data-link-type="dependency"><polygon points="937.272,717.889,942.288,709.413,937.851,712.923,934.342,708.486,937.272,717.889" fill="#181818" style="stroke:#181818;stroke-width:1;stroke-linejoin:miter;stroke-miterlimit:10;"/><path d="M938.899,573.02 C942.076,606.633 941.782,679.229 937.851,712.923" style="stroke:#181818;stroke-width:1;stroke-dasharray:7,7;" fill="none"/></g><g class="link" data-entity-1="ent0018" data-entity-2="ent0043" id="lnk83" data-link-type="dependency"><polygon points="1031.259,717.894,1030.452,708.078,1028.861,713.507,1023.432,711.915,1031.259,717.894" fill="#181818" style="stroke:#181818;stroke-width:1;stroke-linejoin:miter;stroke-miterlimit:10;"/><path d="M945.594,573.297 C956.081,589.55 972.48,615.299 986,638 C1002.536,665.766 1018.375,694.322 1028.861,713.507" style="stroke:#181818;stroke-width:1;stroke-dasharray:7,7;" fill="none"/></g><g class="link" data-entity-1="ent0019" data-entity-2="ent0017" id="lnk84" data-link-type="dependency"><polygon points="593.223,538.95,597.619,530.136,593.445,533.955,589.627,529.781,593.223,538.95" fill="#181818" style="stroke:#181818;stroke-width:1;stroke-linejoin:miter;stroke-miterlimit:10;"/><path d="M835.082,538.87 C836.186,504.192 832.775,427.289 783,407.5 C756.568,396.991 681.432,396.991 655,407.5 C603.986,427.782 594.979,499.426 593.445,533.955" style="stroke:#181818;stroke-width:1;" fill="none"/></g><g class="link" data-entity-1="ent0017" data-entity-2="ent0026" id="lnk85" data-link-type="dependency"><polygon points="934.997,717.769,937.605,708.271,934.249,712.825,929.695,709.469,934.997,717.769" fill="#181818" style="stroke:#181818;stroke-width:1;stroke-linejoin:miter;stroke-miterlimit:10;"/><path d="M608.127,573.069 C619.11,588.336 634.619,610.475 655,621 C702.915,645.744 722.216,626.079 776,630 C788.443,630.907 877.462,631.322 888,638 C916.751,656.22 930.878,690.572 934.249,712.825" style="stroke:#181818;stroke-width:1;stroke-dasharray:7,7;" fill="none"/></g><g class="link" data-entity-1="ent0017" data-entity-2="ent0027" id="lnk86" data-link-type="dependency"><polygon points="695.907,717.785,693.888,708.146,692.983,713.73,687.399,712.824,695.907,717.785" fill="#181818" style="stroke:#181818;stroke-width:1;stroke-linejoin:miter;stroke-miterlimit:10;"/><path d="M588.579,573.191 C585.234,589.206 583.021,613.629 595,630 C601.391,638.734 608.941,632.078 618,638 C651.29,659.762 677.732,692.576 692.983,713.73" style="stroke:#181818;stroke-width:1;stroke-dasharray:7,7;" fill="none"/></g><g class="link" data-entity-1="ent0004" data-entity-2="ent0019" id="lnk87" data-link-type="dependency"><polygon points="833.467,538.94,837.467,529.94,833.467,533.94,829.467,529.94,833.467,538.94" fill="#181818" style="stroke:#181818;stroke-width:1;stroke-linejoin:miter;stroke-miterlimit:10;"/><path d="M190.084,146.514 C390.288,152.478 1089.9,175.712 1122,210 C1179.408,271.321 1179.313,337.59 1122,399 C1084.612,439.061 918.843,381.835 876,416 C838.157,446.178 833.451,504.276 833.465,533.94" style="stroke:#181818;stroke-width:1;" fill="none"/></g><g class="link" data-entity-1="ent0004" data-entity-2="ent0017" id="lnk88" data-link-type="dependency"><polygon points="590.856,538.823,593.406,529.31,590.077,533.884,585.503,530.556,590.856,538.823" fill="#181818" style="stroke:#181818;stroke-width:1;stroke-linejoin:miter;stroke-miterlimit:10;"/><path d="M177.234,161.09 C258.502,195.581 443.141,284.348 545,416 C574.371,453.961 585.711,506.192 590.077,533.884" style="stroke:#181818;stroke-width:1;stroke-dasharray:7,7;" fill="none"/></g><g class="link" data-entity-1="ent0007" data-entity-2="ent0014" id="lnk89" data-link-type="dependency"><polygon points="463.887,541.428,458.006,533.528,459.53,538.976,454.082,540.5,463.887,541.428" fill="#181818" style="stroke:#181818;stroke-width:1;stroke-linejoin:miter;stroke-miterlimit:10;"/><path d="M154.729,367.222 C174.94,378.632 202.621,394.255 227,408 C276.832,436.094 332.028,467.186 378.778,493.512 C402.153,506.675 423.417,518.647 440.843,528.456 C449.556,533.361 452.952,535.273 459.53,538.976" style="stroke:#181818;stroke-width:1;" fill="none"/></g><g class="link" data-entity-1="ent0007" data-entity-2="ent0019" id="lnk90" data-link-type="dependency"><polygon points="834.45,538.576,838.398,529.553,834.421,533.576,830.398,529.599,834.45,538.576" fill="#181818" style="stroke:#181818;stroke-width:1;stroke-linejoin:miter;stroke-miterlimit:10;"/><path d="M190.151,353.247 C348.051,359.337 746.063,378.293 792,416 C829.217,446.55 834.25,503.889 834.421,533.576" style="stroke:#181818;stroke-width:1;" fill="none"/></g><g class="link" data-entity-1="ent0007" data-entity-2="ent0017" id="lnk91" data-link-type="dependency"><polygon points="592.904,538.727,596.554,529.579,592.711,533.73,588.56,529.888,592.904,538.727" fill="#181818" style="stroke:#181818;stroke-width:1;stroke-linejoin:miter;stroke-miterlimit:10;"/><path d="M159.175,367.078 C189.361,380.816 235.553,399.644 278,408 C292.561,410.866 533.045,407.208 545,416 C584.489,445.042 591.551,503.712 592.711,533.73" style="stroke:#181818;stroke-width:1;stroke-dasharray:7,7;" fill="none"/></g><g class="link" data-entity-1="ent0010" data-entity-2="ent0019" id="lnk92" data-link-type="dependency"><polygon points="835.082,538.87,839.366,530.002,835.241,533.873,831.37,529.747,835.082,538.87" fill="#181818" style="stroke:#181818;stroke-width:1;stroke-linejoin:miter;stroke-miterlimit:10;"/><path d="M163.572,538.845 C218.919,505.537 348.579,433.134 469,407.5 C503.124,400.236 750.579,394.61 783,407.5 C832.775,427.289 836.345,499.194 835.241,533.873" style="stroke:#181818;stroke-width:1;" fill="none"/></g><g class="link" data-entity-1="ent0010" data-entity-2="ent0017" id="lnk93" data-link-type="dependency"><polygon points="589.91,538.889,592.052,529.276,588.922,533.988,584.21,530.858,589.91,538.889" fill="#181818" style="stroke:#181818;stroke-width:1;stroke-linejoin:miter;stroke-miterlimit:10;"/><path d="M163.572,538.845 C218.919,505.537 348.579,433.134 469,407.5 C498.125,401.3 508.329,396.499 536,407.5 C541.113,409.533 542.021,411.374 545,416 C570.736,455.965 583.354,506.379 588.922,533.988" style="stroke:#181818;stroke-width:1;stroke-dasharray:7,7;" fill="none"/></g><g class="link" data-entity-1="ent0018" data-entity-2="ent0073" id="lnk95" data-link-type="extension"><polygon points="985.203,562.163,1002.496,569.97,1003.722,558.033,985.203,562.163" fill="none" style="stroke:#181818;stroke-width:1;stroke-linejoin:miter;stroke-miterlimit:10;"/><path d="M1003.109,564.002 C1085.201,572.431 1149.387,570.931 1231.48,563.18" style="stroke:#181818;stroke-width:1;stroke-dasharray:7,7;" fill="none"/></g><g class="link" data-entity-1="ent0060" data-entity-2="ent0016" id="lnk96" data-link-type="dependency"><polygon points="705.512,573.077,696.508,577.067,702.157,576.784,702.439,582.434,705.512,573.077" fill="#181818" style="stroke:#181818;stroke-width:1;stroke-linejoin:miter;stroke-miterlimit:10;"/><path d="M374.274,896.759 C393.595,875.646 427.103,837.076 450,800 C491.591,732.651 460.554,685.332 524,638 C567.528,605.528 595.555,643.457 645,621 C669.435,609.902 688.541,591.832 702.157,576.784" style="stroke:#181818;stroke-width:1;" fill="none"/></g><g class="link" data-entity-1="ent0060" data-entity-2="ent0017" id="lnk97" data-link-type="extension"><polygon points="585.584,573.041,571.934,586.219,582.571,591.774,585.584,573.041" fill="none" style="stroke:#181818;stroke-width:1;stroke-linejoin:miter;stroke-miterlimit:10;"/><path d="M366.726,896.828 C376.457,876.41 393.64,840.182 408,809 C444.697,729.317 418.893,681.736 489,629 C509.092,613.887 523.366,633.809 545,621 C563.883,609.819 569.41,604.017 577.253,588.996" style="stroke:#181818;stroke-width:1;stroke-dasharray:7,7;" fill="none"/></g><g class="link" data-entity-1="ent0060" data-entity-2="ent0027" id="lnk98" data-link-type="dependency"><polygon points="687.317,752.021,677.771,754.446,683.389,755.114,682.721,760.731,687.317,752.021" fill="#181818" style="stroke:#181818;stroke-width:1;stroke-linejoin:miter;stroke-miterlimit:10;"/><path d="M403.441,896.927 C456.15,877.12 545.944,841.01 618,800 C643.141,785.691 665.875,768.905 683.389,755.114" style="stroke:#181818;stroke-width:1;stroke-dasharray:7,7;" fill="none"/></g><g class="link" data-entity-1="ent0018" data-entity-2="ent0076" id="lnk100" data-link-type="extension"><polygon points="969.271,573.121,982.99,586.228,988.11,575.375,969.271,573.121" fill="none" style="stroke:#181818;stroke-width:1;stroke-linejoin:miter;stroke-miterlimit:10;"/><path d="M985.55,580.801 C1019.942,597.028 1058.117,615.173 1105,638 C1161.863,665.686 1227.76,698.656 1265.982,717.867" style="stroke:#181818;stroke-width:1;stroke-dasharray:7,7;" fill="none"/></g><g class="link" data-entity-1="ent0063" data-entity-2="ent0016" id="lnk101" data-link-type="dependency"><polygon points="723.026,538.542,729.264,530.92,724.348,533.72,721.548,528.805,723.026,538.542" fill="#181818" style="stroke:#181818;stroke-width:1;stroke-linejoin:miter;stroke-miterlimit:10;"/><path d="M945.841,357.198 C897.099,364.591 835.577,380.748 792,416 C751.736,448.572 732.35,504.54 724.348,533.72" style="stroke:#181818;stroke-width:1;" fill="none"/></g><g class="link" data-entity-1="ent0063" data-entity-2="ent0017" id="lnk102" data-link-type="extension"><polygon points="594.148,538.728,601.944,521.431,590.006,520.212,594.148,538.728" fill="none" style="stroke:#181818;stroke-width:1;stroke-linejoin:miter;stroke-miterlimit:10;"/><path d="M945.849,355.436 C848.832,362.442 690.674,379.248 646,416 C607.905,447.339 598.98,491.383 595.975,520.821" style="stroke:#181818;stroke-width:1;stroke-dasharray:7,7;" fill="none"/></g><g class="link" data-entity-1="ent0063" data-entity-2="ent0026" id="lnk103" data-link-type="dependency"><polygon points="937.911,717.7,944.589,710.461,939.516,712.964,937.013,707.892,937.911,717.7" fill="#181818" style="stroke:#181818;stroke-width:1;stroke-linejoin:miter;stroke-miterlimit:10;"/><path d="M1024.166,367.379 C1024.598,423.98 1024.782,609.018 1009,630 C1002.494,638.649 994.274,631.023 986,638 C960.53,659.477 946.721,691.717 939.516,712.964" style="stroke:#181818;stroke-width:1;stroke-dasharray:7,7;" fill="none"/></g><g class="link" data-entity-1="ent0063" data-entity-2="ent0028" id="lnk104" data-link-type="dependency"><polygon points="965.652,992.191,975.358,993.866,970.5,990.967,973.399,986.109,965.652,992.191" fill="#181818" style="stroke:#181818;stroke-width:1;stroke-linejoin:miter;stroke-miterlimit:10;"/><path d="M1062.93,367.195 C1079.931,376.325 1098.379,389.467 1109,407 C1143.254,463.549 1124,488.885 1124,555 C1124,555 1124,555 1124,915 C1124,941.196 1128.634,954.658 1109,972 C1086.481,991.89 1004.38,983.713 975,990 C971.94,990.655 973.65,990.171 970.5,990.967" style="stroke:#181818;stroke-width:1;stroke-dasharray:7,7;" fill="none"/></g><g class="link" data-entity-1="ent0063" data-entity-2="ent0029" id="lnk105" data-link-type="dependency"><polygon points="858.677,992.274,868.455,993.45,863.456,990.803,866.102,985.804,858.677,992.274" fill="#181818" style="stroke:#181818;stroke-width:1;stroke-linejoin:miter;stroke-miterlimit:10;"/><path d="M1035.124,367.078 C1057.105,400.467 1104,480.436 1104,555 C1104,555 1104,555 1104,915 C1104,916.587 944.803,965.771 863.456,990.803" style="stroke:#181818;stroke-width:1;stroke-dasharray:7,7;" fill="none"/></g><g class="link" data-entity-1="ent0063" data-entity-2="ent0027" id="lnk106" data-link-type="dependency"><polygon points="710.716,717.627,716.924,709.981,712.019,712.8,709.201,707.895,710.716,717.627" fill="#181818" style="stroke:#181818;stroke-width:1;stroke-linejoin:miter;stroke-miterlimit:10;"/><path d="M1019.42,367.144 C1015.922,380.206 1011.321,399.134 1009,416 C1007.378,427.791 1007.471,621.64 999,630 C980.088,648.663 782.653,624.114 760,638 C731.108,655.71 718.074,690.377 712.019,712.8" style="stroke:#181818;stroke-width:1;stroke-dasharray:7,7;" fill="none"/></g><g class="link" data-entity-1="ent0063" data-entity-2="ent0043" id="lnk107" data-link-type="dependency"><polygon points="1039.776,717.993,1043.636,708.932,1039.699,712.993,1035.637,709.056,1039.776,717.993" fill="#181818" style="stroke:#181818;stroke-width:1;stroke-linejoin:miter;stroke-miterlimit:10;"/><path d="M1025.681,367.156 C1026.786,378.333 1028.174,393.555 1029,407 C1036.33,526.345 1038.966,665.516 1039.699,712.993" style="stroke:#181818;stroke-width:1;stroke-dasharray:7,7;" fill="none"/></g><g class="link" data-entity-1="ent0063" data-entity-2="ent0031" id="lnk108" data-link-type="dependency"><polygon points="1084.14,997.743,1093.916,998.933,1088.921,996.279,1091.575,991.284,1084.14,997.743" fill="#181818" style="stroke:#181818;stroke-width:1;stroke-linejoin:miter;stroke-miterlimit:10;"/><path d="M1076.514,367.051 C1096.13,375.728 1116.627,388.557 1129,407 C1165.834,461.903 1144,488.885 1144,555 C1144,555 1144,555 1144,915 C1144,941.196 1146.706,952.694 1129,972 C1117.278,984.781 1105.196,991.298 1088.921,996.279" style="stroke:#181818;stroke-width:1;stroke-dasharray:7,7;" fill="none"/></g><g class="link" data-entity-1="ent0110" data-entity-2="ent0111" id="lnk112" data-link-type="dependency"><polygon points="1457.694,914,1448.694,910,1452.694,914,1448.694,918,1457.694,914" fill="#181818" style="stroke:#181818;stroke-width:1;stroke-linejoin:miter;stroke-miterlimit:10;"/><path d="M1415.122,914 C1426.809,914 1440.929,914 1452.694,914" style="stroke:#181818;stroke-width:1;" fill="none"/><text x="1426" y="907.668" fill="#666" font-size="10" textLength="21.973">uses</text></g><g class="link" data-entity-1="ent0113" data-entity-2="ent0114" id="lnk115" data-link-type="extension"><polygon points="1593.79,914,1575.79,908,1575.79,920,1593.79,914" fill="none" style="stroke:#181818;stroke-width:1;stroke-linejoin:miter;stroke-miterlimit:10;"/><path d="M1516.119,914 C1534.898,914 1556.941,914 1575.79,914" style="stroke:#181818;stroke-width:1;stroke-dasharray:7,7;" fill="none"/><text x="1527" y="907.668" fill="#666" font-size="10" textLength="56.934">implements</text></g><g class="link" data-entity-1="ent0116" data-entity-2="ent0117" id="lnk118" data-link-type="dependency"><polygon points="1729.79,914,1720.79,910,1724.79,914,1720.79,918,1729.79,914" fill="#181818" style="stroke:#181818;stroke-width:1;stroke-linejoin:miter;stroke-miterlimit:10;"/><path d="M1652.119,914 C1670.898,914 1705.941,914 1724.79,914" style="stroke:#181818;stroke-width:1;stroke-dasharray:7,7;" fill="none"/><text x="1663" y="907.668" fill="#666" font-size="10" textLength="56.841">depends on</text></g><g class="legend" data-source-line="154"><rect x="1629.678" y="1134" width="125.322" height="26.488" fill="#DDD" style="stroke:#000;stroke-width:1;" rx="7.5" ry="7.5"/><text x="1634.678" y="1152.535" fill="#000" font-size="14" textLength="115.322">EventingPlatform</text></g><?plantuml-src dLdBRXit5DthArXdqLLKfoYwS0m1gksaHlqGR25Tj8L0proDQ7Cu0mxbM4dqHVs4xl9bvRmfFcP82qYi8UyvzybBSlH3pd6IOaJnBjiALAGWCCEJ7v7O0Dh02quoXjOyIwk1A8lX1DtddB04NMVnbXAnGMdv1GgKKnn1Z1vsfIpXwF4wen1LKuK03fdOvL1CYYV2SinnYeeDZhFF9TSQqmAKcHZMU4l54bx4d9A4fS04eh0MYWp7xAc07FtyYpB8f8N6u9ppxFE7Z8bxyWNGksFRr5b6CuxU_5fz9gU5s56OJTe8V4M_PvnyaNAOzWP5yZ_WQ3_X4Ccm9HJ614z_QeWLoD7vtUMdovkFQ7u-NomlxkwF42vGpCbp6Patb30u4TBPGbfSadsTe2upHsUKLEBfIdwhfX1Ig4yBwV79kncIYkMtMI-x8ip1NNuYp6DqT2yolhlRCWRyRzPG7S--_xlW9CLyDuznBjtw_fz9hY0hnlsa_jVRdR52LaSBgP_yxQ_bVNneHA-8BC50Fneb6eFTdp_m-WdBzS6ARGgyOQW6L-sWjtU7CEz4lS95JTC1pO6VHbRHsxys98w1_IDNC7ix6uoNSyx2CcYIkjAEvel5rUNPV7bvUrEv4sKSnfRBFCyfYR0W6Mj2e8nu9qZ1-6HdiNsWfDXSGr7W16pfMMHSwBbHbHmocAb_3MS5jDcfLT0zo6J4_aOsbQFQHw3GAFapYM3CEWbhg8QYqTSG9yb6L4NayjCoCmRNlNBC-bZH-zFLutcMOjAMOltG5OzF9TQGuIBiS_6dJ2HmYbbya8uFE2eZeQUZuUv11jy5UmQQvOSb_GdJBTm-F4hR7OmjpE1Ru1tDS1n8rw0CjjlrMYlbSQuAOpBnE9ofn9WUSdbMYaIeXpNAO5kMsPR9amKMoAWW5LQA7u2ErLeJxjMZ0ZoC7vfkywale0nJ2A29HGX4SJP8KpjPWRxDnYlk3Y8WUMXs6vJDX7xjsVgBUpaPSmDmqnbzQW0yO7jT2cwela2qaXWms5WDHd6umVR2TtlSdKkiLkydXt-xlYuD4Td3TjrakdqCwkqjQAoxwqReoR55e-KEsb_rM6Y5DxYv1c4jksgmRhdPUgADi_nLMG55QN-JYN9WLGru7n5xYCy9yMDvkiK2hlJTR-0ifsXGuNQNbe2Hr2ns1tx9qLKr6kYSXlEweO0G5EPYkG69NfHWNqTrRHOgxQvYxq1T4RWZv-f18L2Z1uM0rQqgZA1hCM4mnvo5nISDU_srniMD-LO3sDWjhRvCvsqNEBYiTgE1r-aEvrEj5MJaEZHufUwr7LAv6axIBUeaeCKaFhv8iOImv7NUb3fq0csn3JjiBKSBvtuo6Tw4ncvdW-ZfrDRy_I7j6SaVqHwCN1jRW4Mwj9sws_E6Ri6sBTh74eja7nBZpT3m3TW4J2l0r6MoyzsHLKymG3NC0HmnSEYLrRZIGRINPkVQcvPlpEkRYslHEFk_Qwcrxw3SqAcfiRNN3R5MbgrJ-3ZbiLNvEEX3C-2i7zo--8AnzOkBrm2h2yqhW7sQWg5z1mk6glUtYRb77iye9C1YTHUhHvfzyhVgyrx0YpYfV-kfjilcpGUg0Qjj0SMg_DNBCIMoSg8NwrTv9u1EKFdD921fJg7yLSYbGH5ez6YGjYjyc-dIKcd_R3B7aCj852jPf7RLYa2ZMeFq3KaJbfgRPrJThFiu6BTFQmWqFomWtVYzgq7e9murdPwzOO2XgQRABcduXJpEYb8znMATyNGY9skH_m40?></g></svg>